<?xml version="1.0" encoding="UTF-8" standalone="no"?>
<!-- Created with Inkscape (http://www.inkscape.org/) -->

<svg
   width="210mm"
   height="297mm"
   viewBox="0 0 210 297"
   version="1.1"
   id="svg1"
   inkscape:version="1.4.3 (0d15f75042, 2025-12-25)"
   sodipodi:docname="drawing.svg"
   xmlns:inkscape="http://www.inkscape.org/namespaces/inkscape"
   xmlns:sodipodi="http://sodipodi.sourceforge.net/DTD/sodipodi-0.dtd"
   xmlns:xlink="http://www.w3.org/1999/xlink"
   xmlns="http://www.w3.org/2000/svg"
   xmlns:svg="http://www.w3.org/2000/svg">
  <sodipodi:namedview
     id="namedview1"
     pagecolor="#ffffff"
     bordercolor="#000000"
     borderopacity="0.25"
     inkscape:showpageshadow="2"
     inkscape:pageopacity="0.0"
     inkscape:pagecheckerboard="0"
     inkscape:deskcolor="#d1d1d1"
     inkscape:document-units="mm"
     inkscape:zoom="2.1351889"
     inkscape:cx="349.85194"
     inkscape:cy="226.67783"
     inkscape:window-width="2160"
     inkscape:window-height="1371"
     inkscape:window-x="0"
     inkscape:window-y="0"
     inkscape:window-maximized="1"
     inkscape:current-layer="layer1" />
  <defs
     id="defs1">
    <pattern
       inkscape:collect="always"
       xlink:href="#Strips1_2"
       preserveAspectRatio="xMidYMid"
       id="pattern32"
       patternTransform="matrix(0.11,0,0,0.11,-96.098544,0.23504929)"
       x="0"
       y="0" />
    <pattern
       inkscape:collect="always"
       patternUnits="userSpaceOnUse"
       width="3"
       height="1"
       patternTransform="translate(0,0) scale(2,2)"
       preserveAspectRatio="xMidYMid"
       id="Strips1_2"
       style="fill:#000000"
       inkscape:stockid="Stripes 03 (1:2)"
       inkscape:isstock="true"
       inkscape:label="Stripes 03 (1:2)">
      <rect
   style="stroke:none"
   x="0"
   y="-0.5"
   width="1"
   height="2"
   id="rect146" />

    </pattern>
    <marker
       style="overflow:visible"
       id="DartArrow"
       refX="0"
       refY="0"
       orient="auto-start-reverse"
       inkscape:stockid="Dart arrow"
       markerWidth="1"
       markerHeight="1"
       viewBox="0 0 1 1"
       inkscape:isstock="true"
       inkscape:collect="always"
       preserveAspectRatio="xMidYMid">
      <path
         style="fill:context-stroke;fill-rule:evenodd;stroke:none"
         d="M 0,0 5,-5 -12.5,0 5,5 Z"
         transform="scale(-0.5)"
         id="path6" />
    </marker>
    <marker
       style="overflow:visible"
       id="DartArrow-1"
       refX="0"
       refY="0"
       orient="auto-start-reverse"
       inkscape:stockid="Dart arrow"
       markerWidth="1"
       markerHeight="1"
       viewBox="0 0 1 1"
       inkscape:isstock="true"
       inkscape:collect="always"
       preserveAspectRatio="xMidYMid">
      <path
         style="fill:context-stroke;fill-rule:evenodd;stroke:none"
         d="M 0,0 5,-5 -12.5,0 5,5 Z"
         transform="scale(-0.5)"
         id="path6-8" />
    </marker>
  </defs>
  <g
     inkscape:label="Layer 1"
     inkscape:groupmode="layer"
     id="layer1">
    <path
       style="fill:#000000;stroke-width:0.3;stroke:#000000;stroke-opacity:1;marker-start:url(#DartArrow)"
       d="M 16.357464,12.345256 V 74.071537"
       id="path1" />
    <path
       style="fill:#000000;stroke:#000000;stroke-width:0.3;stroke-opacity:1;marker-end:url(#DartArrow)"
       d="M 14.094167,72.322626 H 79.729779"
       id="path2" />
    <path
       style="fill:none;stroke:#000000;stroke-width:0.3;stroke-opacity:1"
       d="M 16.25257,72.283089 C 59.769597,67.139232 66.353735,27.222903 66.353735,27.222903"
       id="path3" />
    <path
       style="fill:#000000;stroke:#000000;stroke-width:0.3;stroke-opacity:1;marker-start:url(#DartArrow-1)"
       d="M 112.48858,12.114444 V 73.840725"
       id="path2-0" />
    <path
       style="fill:#000000;stroke:#000000;stroke-width:0.3;stroke-opacity:1;marker-end:url(#DartArrow-1)"
       d="M 110.22529,72.091814 H 175.8609"
       id="path3-2" />
    <path
       style="fill:none;stroke:#000000;stroke-width:0.3;stroke-opacity:1"
       d="M 112.38369,72.052277 C 155.90072,66.90842 162.48486,26.992091 162.48486,26.992091"
       id="path4" />
    <path
       style="fill:none;stroke:#000000;stroke-width:0.347946;stroke-dasharray:1.04384, 1.04384;stroke-dashoffset:0;stroke-opacity:1"
       d="M 47.400602,59.528436 V 72.298598"
       id="path5" />
    <path
       style="fill:none;stroke:#000000;stroke-width:0.338222;stroke-dasharray:1.01466, 1.01466;stroke-dashoffset:0;stroke-opacity:1"
       d="M 64.256153,34.64322 V 72.599967"
       id="path7" />
    <text
       xml:space="preserve"
       style="font-size:2.456px;font-family:C059;-inkscape-font-specification:C059;writing-mode:lr-tb;direction:ltr;fill:#000000;fill-opacity:1;stroke:none;stroke-width:0.232063;stroke-dasharray:none;stroke-dashoffset:0;stroke-opacity:1"
       x="46.150688"
       y="75.184814"
       id="text7"><tspan
         sodipodi:role="line"
         id="tspan7"
         style="fill:#000000;fill-opacity:1;stroke:none;stroke-width:0.232063;stroke-dasharray:none"
         x="46.150688"
         y="75.184814">A</tspan></text>
    <text
       xml:space="preserve"
       style="font-size:2.456px;font-family:C059;-inkscape-font-specification:C059;writing-mode:lr-tb;direction:ltr;fill:#000000;fill-opacity:1;stroke:none;stroke-width:0.232063;stroke-dasharray:none;stroke-dashoffset:0;stroke-opacity:1"
       x="63.834003"
       y="74.874466"
       id="text7-9"><tspan
         sodipodi:role="line"
         id="tspan7-4"
         style="fill:#000000;fill-opacity:1;stroke:none;stroke-width:0.232063;stroke-dasharray:none"
         x="63.834003"
         y="74.874466">D</tspan></text>
    <text
       xml:space="preserve"
       style="font-size:2.456px;font-family:C059;-inkscape-font-specification:C059;writing-mode:lr-tb;direction:ltr;fill:#000000;fill-opacity:1;stroke:none;stroke-width:0.232063;stroke-dasharray:none;stroke-dashoffset:0;stroke-opacity:1"
       x="160.16803"
       y="74.717369"
       id="text7-9-5"><tspan
         sodipodi:role="line"
         id="tspan7-4-6"
         style="fill:#000000;fill-opacity:1;stroke:none;stroke-width:0.232063;stroke-dasharray:none"
         x="160.16803"
         y="74.717369">D</tspan></text>
    <text
       xml:space="preserve"
       style="font-size:2.456px;font-family:C059;-inkscape-font-specification:C059;writing-mode:lr-tb;direction:ltr;fill:#000000;fill-opacity:1;stroke:none;stroke-width:0.232063;stroke-dasharray:none;stroke-dashoffset:0;stroke-opacity:1"
       x="45.819862"
       y="58.571762"
       id="text7-0"
       inkscape:transform-center-x="2.9050182"
       inkscape:transform-center-y="3.7157209"><tspan
         sodipodi:role="line"
         id="tspan7-3"
         style="fill:#000000;fill-opacity:1;stroke:none;stroke-width:0.232063;stroke-dasharray:none"
         x="45.819862"
         y="58.571762">B</tspan></text>
    <text
       xml:space="preserve"
       style="font-size:2.456px;font-family:C059;-inkscape-font-specification:C059;writing-mode:lr-tb;direction:ltr;fill:#000000;fill-opacity:1;stroke:none;stroke-width:0.232063;stroke-dasharray:none;stroke-dashoffset:0;stroke-opacity:1"
       x="62.217384"
       y="33.837551"
       id="text7-9-6"><tspan
         sodipodi:role="line"
         id="tspan7-4-1"
         style="fill:#000000;fill-opacity:1;stroke:none;stroke-width:0.232063;stroke-dasharray:none"
         x="62.217384"
         y="33.837551">C</tspan></text>
    <path
       id="path8"
       style="fill:url(#pattern32);stroke:#000000;stroke-width:0.015;stroke-dasharray:none;stroke-dashoffset:0;stroke-opacity:1"
       d="m 64.197859,34.993353 c 0,0 -7.24256,17.768518 -17.09811,24.649959 1.9e-4,7.12e-4 3.3e-4,0.0014 5.1e-4,0.0021 l 0.20154,-0.133393 v 12.686275 h 16.89606 z m -17.10948,24.657684 c -0.006,0.0043 -0.0124,0.0081 -0.0186,0.01236 -1.6e-4,6.85e-4 -3.4e-4,0.0014 -5.1e-4,0.0021 l 0.0186,-0.01185 v -5.16e-4 -5.14e-4 l 5.2e-4,-5.15e-4 v -5.15e-4 z m -0.0315,0.02163 c -0.005,0.0037 -0.0103,0.0076 -0.0155,0.01133 l 0.0155,-0.0098 c -1e-5,-3.42e-4 -1e-5,-0.0011 0,-0.0016 z" />
    <path
       style="fill:none;fill-opacity:1;stroke:none;stroke-width:0.3;stroke-dasharray:none;stroke-dashoffset:0;stroke-opacity:1"
       id="path23"
       d="m 139.20007,57.440124 c 0.12163,0.07825 0.0873,0.04993 0.19403,0.14247 0.0644,0.0558 0.11897,0.09759 0.166,0.167539 0.0179,0.02655 0.0383,0.08614 0.0497,0.116433 -0.001,0.05719 0.0102,0.0348 -0.0308,0.06913 0,0 3.03753,1.425651 3.03753,1.425651 v 0 c -0.0755,-0.08166 -0.0448,-0.03951 -0.0951,-0.124023 -0.003,-0.01265 -0.025,-0.08436 -0.0202,-0.100814 0.0138,-0.04698 0.0755,-0.03058 0.10469,-0.02772 0.067,0.0066 0.1,0.02159 0.16683,0.04283 z" />
    <path
       style="fill:none;fill-opacity:1;stroke:none;stroke-width:0.3;stroke-dasharray:none;stroke-dashoffset:0;stroke-opacity:1"
       id="path24"
       d="m 143.52564,60.415527 c -0.0458,-0.01543 -0.048,-0.01135 -0.0817,-0.03695 -0.005,-0.0035 -0.009,-0.0075 -0.012,-0.01225 -0.004,-0.0059 -0.0221,-0.02714 -5.3e-4,-0.03097 0.01,-0.0016 0.0193,0.0021 0.0289,0.0031 0.0102,0.0026 0.0207,0.0041 0.0305,0.0078 0.0329,0.01252 0.0728,0.03557 0.10227,0.05267 0.0196,0.01135 0.1068,0.06395 0.1254,0.07612 0.0186,0.01217 0.0365,0.02551 0.0547,0.03825 0.0141,0.01095 0.0289,0.02106 0.0423,0.03291 0.009,0.0076 0.0333,0.03087 0.0233,0.02519 -1.08981,-0.62227 -2.17867,-1.24624 -3.26432,-1.875755 -0.008,-0.0046 0.0182,-0.0016 0.0273,-0.0013 0.008,2.38e-4 0.015,0.0019 0.0225,0.0028 0.006,7.94e-4 0.012,0.0013 0.018,0.0021 0.004,0.0053 0.004,0.0037 -0.003,0.0041 0,0 3.55328,1.452161 3.55328,1.452161 v 0 c -0.03,-0.02003 -0.0161,-0.0097 -0.042,-0.03084 -0.004,-0.01154 -0.008,-0.02214 -0.007,-0.03452 5.3e-4,-0.006 0.009,-0.01453 0.004,-0.01754 -1.09241,-0.634503 -2.18867,-1.262372 -3.28585,-1.88858 -0.004,-0.0021 -0.002,0.0088 -5.3e-4,0.01283 0.003,0.0071 0.008,0.01265 0.0123,0.019 0.005,0.0068 0.01,0.01352 0.0144,0.0204 0.004,0.0052 0.008,0.0099 0.0103,0.01598 0.001,0.0029 5.3e-4,0.0079 -0.002,0.0089 -0.006,0.0019 -0.0127,-5.5e-5 -0.0187,-0.0019 -0.0299,-0.0093 -0.0611,-0.02956 -0.0873,-0.04436 -0.0165,-0.01106 -0.0332,-0.0217 -0.0494,-0.03321 -0.0456,-0.03261 -0.0889,-0.06843 -0.13464,-0.100922 -0.0191,-0.01357 -0.0388,-0.02627 -0.0586,-0.03871 -0.0215,-0.01349 -0.0426,-0.02799 -0.0654,-0.03908 -0.0238,-0.01154 -0.0493,-0.01908 -0.074,-0.02859 z" />
    <path
       style="fill:none;fill-opacity:1;stroke:none;stroke-width:0.3;stroke-dasharray:none;stroke-dashoffset:0;stroke-opacity:1"
       d="m 142.12106,60.815382 0.82073,-1.095262"
       id="path25" />
    <path
       style="fill:none;fill-opacity:1;stroke:none;stroke-width:0.762066;stroke-dasharray:none;stroke-dashoffset:0;stroke-opacity:1"
       d="m 142.61007,60.163372 c 0.0365,-0.06557 0.0678,-0.13638 0.10948,-0.196592 0.0232,-0.03357 0.0554,-0.05526 0.0838,-0.08192 0.0579,-0.05466 0.12119,-0.101232 0.1739,-0.163851 0.0135,-0.01633 0.0563,-0.08654 0.071,-0.106474 0.0511,-0.07041 0.10677,-0.124091 0.16737,-0.180207 0.007,-0.0069 0.046,-0.05738 0.0579,-0.05738"
       id="path26" />
    <rect
       style="fill:#ffffff;fill-opacity:1;stroke:none;stroke-width:0.3;stroke-dasharray:none;stroke-dashoffset:0;stroke-opacity:1"
       id="rect26"
       width="1.2213876"
       height="2.2542391"
       x="138.71793"
       y="54.872833" />
    <text
       xml:space="preserve"
       style="font-style:italic;font-variant:normal;font-weight:normal;font-stretch:normal;font-size:2.456px;font-family:C059;-inkscape-font-specification:'C059 Italic';writing-mode:lr-tb;direction:ltr;fill:#000000;fill-opacity:1;stroke:none;stroke-width:0.232063;stroke-dasharray:none;stroke-dashoffset:0;stroke-opacity:1"
       x="13.834795"
       y="10.622432"
       id="text7-0-5"
       inkscape:transform-center-x="2.9050182"
       inkscape:transform-center-y="3.7157209"><tspan
         sodipodi:role="line"
         id="tspan7-3-6"
         style="font-style:italic;font-variant:normal;font-weight:normal;font-stretch:normal;font-family:C059;-inkscape-font-specification:'C059 Italic';fill:#000000;fill-opacity:1;stroke:none;stroke-width:0.232063;stroke-dasharray:none"
         x="13.834795"
         y="10.622432">y</tspan></text>
    <text
       xml:space="preserve"
       style="font-style:italic;font-variant:normal;font-weight:normal;font-stretch:normal;font-size:2.456px;font-family:C059;-inkscape-font-specification:'C059 Italic';writing-mode:lr-tb;direction:ltr;fill:#000000;fill-opacity:1;stroke:none;stroke-width:0.232063;stroke-dasharray:none;stroke-dashoffset:0;stroke-opacity:1"
       x="80.914963"
       y="74.838837"
       id="text7-9-6-5"><tspan
         sodipodi:role="line"
         id="tspan7-4-1-2"
         style="font-style:italic;font-variant:normal;font-weight:normal;font-stretch:normal;font-family:C059;-inkscape-font-specification:'C059 Italic';fill:#000000;fill-opacity:1;stroke:none;stroke-width:0.232063;stroke-dasharray:none"
         x="80.914963"
         y="74.838837">x</tspan></text>
    <text
       xml:space="preserve"
       style="font-style:italic;font-variant:normal;font-weight:normal;font-stretch:normal;font-size:3.175px;font-family:C059;-inkscape-font-specification:'C059 Italic';writing-mode:lr-tb;direction:ltr;fill:#000000;fill-opacity:1;stroke:none;stroke-width:0.015;stroke-dasharray:none;stroke-dashoffset:0;stroke-opacity:1"
       x="43.145573"
       y="33.111717"
       id="text32"><tspan
         sodipodi:role="line"
         id="tspan32"
         style="stroke-width:0.015;fill:#000000;fill-opacity:1"
         x="43.145573"
         y="33.111717" /></text>
    <text
       xml:space="preserve"
       style="font-style:italic;font-variant:normal;font-weight:normal;font-stretch:normal;font-size:3.175px;font-family:C059;-inkscape-font-specification:'C059 Italic';writing-mode:lr-tb;direction:ltr;fill:#000000;fill-opacity:1;stroke:none;stroke-width:0.015;stroke-dasharray:none;stroke-dashoffset:0;stroke-opacity:1"
       x="59.74704"
       y="23.260298"
       id="text33"><tspan
         sodipodi:role="line"
         id="tspan33"
         style="stroke-width:0.015"
         x="59.74704"
         y="23.260298">y=f(x)</tspan></text>
    <text
       xml:space="preserve"
       style="font-style:italic;font-variant:normal;font-weight:normal;font-stretch:normal;font-size:3.175px;font-family:C059;-inkscape-font-specification:'C059 Italic';writing-mode:lr-tb;direction:ltr;fill:#000000;fill-opacity:1;stroke:none;stroke-width:0.015;stroke-dasharray:none;stroke-dashoffset:0;stroke-opacity:1"
       x="154.99644"
       y="22.72542"
       id="text33-8"><tspan
         sodipodi:role="line"
         id="tspan33-4"
         style="stroke-width:0.015"
         x="154.99644"
         y="22.72542">y=f(x)</tspan></text>
    <path
       style="fill:#000000;fill-opacity:1;stroke:#000000;stroke-width:0.296919;stroke-dasharray:0.890758, 0.890758;stroke-dashoffset:0;stroke-opacity:1"
       d="M 143.40537,59.336999 V 72.041987"
       id="path33" />
    <path
       style="fill:#000000;fill-opacity:1;stroke:#000000;stroke-width:0.301085;stroke-dasharray:0.903256, 0.903256;stroke-dashoffset:0;stroke-opacity:1"
       d="M 160.3862,34.811962 V 72.172916"
       id="path34" />
    <rect
       style="fill:none;fill-opacity:1;stroke:#000000;stroke-width:0.153406;stroke-dasharray:none;stroke-dashoffset:0;stroke-opacity:1"
       id="rect34"
       width="2.0263717"
       height="12.814121"
       x="143.58954"
       y="59.220673" />
    <rect
       style="fill:none;fill-opacity:1;stroke:#000000;stroke-width:0.181423;stroke-dasharray:none;stroke-dashoffset:0;stroke-opacity:1"
       id="rect35"
       width="2.1724486"
       height="14.793819"
       x="145.59995"
       y="57.250351" />
    <rect
       style="fill:none;fill-opacity:1;stroke:#000000;stroke-width:0.174516;stroke-dasharray:none;stroke-dashoffset:0;stroke-opacity:1"
       id="rect36"
       width="2.1462286"
       height="16.821474"
       x="147.78288"
       y="55.292408" />
    <rect
       style="fill:none;fill-opacity:1;stroke:#000000;stroke-width:0.15;stroke-dasharray:none;stroke-dashoffset:0;stroke-opacity:1"
       id="rect37"
       width="2.1981905"
       height="19.411861"
       x="149.93336"
       y="52.662231" />
    <rect
       style="fill:none;fill-opacity:1;stroke:#000000;stroke-width:0.159845;stroke-dasharray:none;stroke-dashoffset:0;stroke-opacity:1"
       id="rect38"
       width="2.8194458"
       height="22.146839"
       x="152.11641"
       y="49.960281" />
    <rect
       style="fill:none;fill-opacity:1;stroke:#000000;stroke-width:0.168696;stroke-dasharray:none;stroke-dashoffset:0;stroke-opacity:1"
       id="rect38-4"
       width="2.7017183"
       height="25.742109"
       x="154.91504"
       y="46.301914" />
    <rect
       style="fill:none;fill-opacity:1;stroke:#000000;stroke-width:0.184324;stroke-dasharray:none;stroke-dashoffset:0;stroke-opacity:1"
       id="rect38-6"
       width="2.6698091"
       height="31.100153"
       x="157.62312"
       y="41.060925" />
    <text
       xml:space="preserve"
       style="font-style:italic;font-variant:normal;font-weight:normal;font-stretch:normal;font-size:2.456px;font-family:C059;-inkscape-font-specification:'C059 Italic';writing-mode:lr-tb;direction:ltr;fill:#000000;fill-opacity:1;stroke:none;stroke-width:0.232063;stroke-dasharray:none;stroke-dashoffset:0;stroke-opacity:1"
       x="176.69586"
       y="74.179321"
       id="text7-9-6-5-1"><tspan
         sodipodi:role="line"
         id="tspan7-4-1-2-4"
         style="font-style:italic;font-variant:normal;font-weight:normal;font-stretch:normal;font-family:C059;-inkscape-font-specification:'C059 Italic';fill:#000000;fill-opacity:1;stroke:none;stroke-width:0.232063;stroke-dasharray:none"
         x="176.69586"
         y="74.179321">x</tspan></text>
    <text
       xml:space="preserve"
       style="font-style:italic;font-variant:normal;font-weight:normal;font-stretch:normal;font-size:2.456px;font-family:C059;-inkscape-font-specification:'C059 Italic';writing-mode:lr-tb;direction:ltr;fill:#000000;fill-opacity:1;stroke:none;stroke-width:0.232063;stroke-dasharray:none;stroke-dashoffset:0;stroke-opacity:1"
       x="110.84257"
       y="10.695693"
       id="text7-0-5-8"
       inkscape:transform-center-x="2.9050182"
       inkscape:transform-center-y="3.7157209"><tspan
         sodipodi:role="line"
         id="tspan7-3-6-9"
         style="font-style:italic;font-variant:normal;font-weight:normal;font-stretch:normal;font-family:C059;-inkscape-font-specification:'C059 Italic';fill:#000000;fill-opacity:1;stroke:none;stroke-width:0.232063;stroke-dasharray:none"
         x="110.84257"
         y="10.695693">y</tspan></text>
    <text
       xml:space="preserve"
       style="font-size:2.456px;font-family:C059;-inkscape-font-specification:C059;writing-mode:lr-tb;direction:ltr;fill:#000000;fill-opacity:1;stroke:none;stroke-width:0.232063;stroke-dasharray:none;stroke-dashoffset:0;stroke-opacity:1"
       x="141.05264"
       y="58.684776"
       id="text7-0-3"
       inkscape:transform-center-x="2.9050182"
       inkscape:transform-center-y="3.7157209"><tspan
         sodipodi:role="line"
         id="tspan7-3-9"
         style="fill:#000000;fill-opacity:1;stroke:none;stroke-width:0.232063;stroke-dasharray:none"
         x="141.05264"
         y="58.684776">B</tspan></text>
    <text
       xml:space="preserve"
       style="font-size:2.456px;font-family:C059;-inkscape-font-specification:C059;writing-mode:lr-tb;direction:ltr;fill:#000000;fill-opacity:1;stroke:none;stroke-width:0.232063;stroke-dasharray:none;stroke-dashoffset:0;stroke-opacity:1"
       x="158.48392"
       y="33.96743"
       id="text7-9-6-9"><tspan
         sodipodi:role="line"
         id="tspan7-4-1-3"
         style="fill:#000000;fill-opacity:1;stroke:none;stroke-width:0.232063;stroke-dasharray:none"
         x="158.48392"
         y="33.96743">C</tspan></text>
    <text
       xml:space="preserve"
       style="font-size:2.456px;font-family:C059;-inkscape-font-specification:C059;writing-mode:lr-tb;direction:ltr;fill:#000000;fill-opacity:1;stroke:none;stroke-width:0.232063;stroke-dasharray:none;stroke-dashoffset:0;stroke-opacity:1"
       x="141.35728"
       y="74.793701"
       id="text7-5"><tspan
         sodipodi:role="line"
         id="tspan7-0"
         style="fill:#000000;fill-opacity:1;stroke:none;stroke-width:0.232063;stroke-dasharray:none"
         x="141.35728"
         y="74.793701">A</tspan></text>
  </g>
</svg>
